# xmcd
#
# Track frame offsets:
#        150
#        12800
#        34129
#        55129
#        77934
#        89934
#        105730
#        124344
#        142445
#        165983
#        180877
#        202514
#
# Disc length: 2946 seconds
#
# Revision: 0
# Processed by: cddbd v1.5.1PL0 Copyright (c) Steve Scherf et al.
# Submitted via: ExactAudioCopy v0.95a5
#
DISCID=9d0b800c
DTITLE=ZEPPET STORE - BLACK BERRY BED
DYEAR=2004
DGENRE=Rock
TTITLE0=AIRY FAIRY
TTITLE1=CRACKED VELVET
TTITLE2=NEW DIRECTION
TTITLE3=REGRET
TTITLE4=SHE'S DEVILISH
TTITLE5=THE CRIME OF FREEDOM
TTITLE6=FUNCIFUL
TTITLE7=JOIN HANDS
TTITLE8=HYPNOTIZER
TTITLE9=TWISTER
TTITLE10=HARMONIC
TTITLE11=FLAMING ACTION
EXTD=
EXTT0=
EXTT1=
EXTT2=
EXTT3=
EXTT4=
EXTT5=
EXTT6=
EXTT7=
EXTT8=
EXTT9=
EXTT10=
EXTT11=
PLAYORDER=
